<svg xmlns="http://www.w3.org/2000/svg" viewBox="0 0 238 46" role="img" aria-labelledby="title">
  <title id="title">Babuye</title>
  <rect x="0" y="1" width="44" height="44" rx="2" fill="#F7F6F1"/>
  <path d="M10 36V10h13.7c7.5 0 12.1 3.8 12.1 9.9 0 3-1.2 5.4-3.4 7 1.7 1.5 2.7 3.6 2.7 6.2V36H10Zm7.2-15.2h6c3.1 0 5-1.3 5-3.6s-1.9-3.6-5-3.6h-6v7.2Zm0 11.5h6.7c3 0 5-1.3 5-3.7 0-2.3-2-3.6-5-3.6h-6.7v7.3Z" fill="#111111"/>
  <text x="62" y="32" fill="#F7F6F1" font-family="Arial, Helvetica, sans-serif" font-size="26" font-weight="700" letter-spacing="7">BABUYE</text>
</svg>
