<svg xmlns="http://www.w3.org/2000/svg" viewBox="0 0 1200 820">
  <defs>
    <linearGradient id="sky" x1="0" x2="1" y1="0" y2="1">
      <stop offset="0" stop-color="#f7f6f1"/>
      <stop offset="1" stop-color="#d8ded8"/>
    </linearGradient>
    <linearGradient id="glass" x1="0" x2="1">
      <stop offset="0" stop-color="#c7d2cf"/>
      <stop offset="1" stop-color="#f7f6f1"/>
    </linearGradient>
  </defs>
  <rect width="1200" height="820" fill="url(#sky)"/>
  <path d="M70 720h1060" stroke="#111" stroke-opacity=".25" stroke-width="2"/>
  <g transform="translate(190 92)">
    <path d="M0 628V98L412 0l398 124v504H0Z" fill="#2f3331"/>
    <path d="M62 170h174v174H62V170Zm228 0h174v174H290V170Zm228 0h174v174H518V170ZM62 396h174v174H62V396Zm228 0h174v174H290V396Zm228 0h174v174H518V396Z" fill="url(#glass)"/>
    <path d="M62 170h630M62 344h630M62 396h630M62 570h630M236 170v400M290 170v400M464 170v400M518 170v400" stroke="#111" stroke-opacity=".32" stroke-width="8"/>
    <path d="M0 98 412 0l398 124" fill="none" stroke="#111" stroke-opacity=".22" stroke-width="12"/>
  </g>
</svg>
